<?xml version="1.0" encoding="UTF-8" standalone="no"?>
<svg
   xmlns:dc="http://purl.org/dc/elements/1.1/"
   xmlns:cc="http://creativecommons.org/ns#"
   xmlns:rdf="http://www.w3.org/1999/02/22-rdf-syntax-ns#"
   xmlns:svg="http://www.w3.org/2000/svg"
   xmlns="http://www.w3.org/2000/svg"
   xmlns:sodipodi="http://sodipodi.sourceforge.net/DTD/sodipodi-0.dtd"
   xmlns:inkscape="http://www.inkscape.org/namespaces/inkscape"
   version="1.1"
   id="svg2"
   xml:space="preserve"
   width="24"
   height="24"
   viewBox="0 0 24 24"
   sodipodi:docname="Insta logo.eps"><metadata
     id="metadata8"><rdf:RDF><cc:Work
         rdf:about=""><dc:format>image/svg+xml</dc:format><dc:type
           rdf:resource="http://purl.org/dc/dcmitype/StillImage" /></cc:Work></rdf:RDF></metadata><defs
     id="defs6" /><sodipodi:namedview
     pagecolor="#ffffff"
     bordercolor="#666666"
     borderopacity="1"
     objecttolerance="10"
     gridtolerance="10"
     guidetolerance="10"
     inkscape:pageopacity="0"
     inkscape:pageshadow="2"
     inkscape:window-width="640"
     inkscape:window-height="480"
     id="namedview4" /><g
     id="g10"
     inkscape:groupmode="layer"
     inkscape:label="ink_ext_XXXXXX"
     transform="matrix(1.3333333,0,0,-1.3333333,0,24)"><g
       id="g12"
       transform="scale(0.1)"><path
         d="M 122.996,89.9961 C 122.996,108.227 108.223,123 90,123 71.7734,123 57.0039,108.227 57.0039,89.9961 57.0039,71.7734 71.7734,57 90,57 c 18.223,0 32.996,14.7734 32.996,32.9961 z m 43,54.9999 c 0.164,-2.598 -1.816,-4.836 -4.414,-5 -0.195,-0.008 -0.391,-0.008 -0.586,0 h -15 c -2.598,-0.156 -4.836,1.824 -5,4.426 -0.012,0.195 -0.012,0.387 0,0.574 v 15 c -0.156,2.606 1.824,4.844 4.426,5 0.191,0.016 0.391,0.016 0.574,0 h 15 c 2.609,0.164 4.844,-1.816 5,-4.418 0.02,-0.195 0.02,-0.387 0,-0.582 z m -13.992,35 H 27.9961 C 12.5352,179.996 0,167.465 0,152 v -30 h 45 c 10.0625,14.355 26.4688,22.93 44,22.996 17.594,0.168 34.098,-8.461 43.996,-22.996 h 46.008 v 30 c 0.488,14.965 -11.238,27.496 -26.211,27.988 -0.266,0.004 -0.527,0.008 -0.789,0.008 z m -8,-89.9999 C 144.043,60.1719 119.902,35.9648 90.082,35.9141 60.2578,35.875 36.043,60.0078 36,89.8359 c 0,0.0547 0,0.1094 0,0.1602 -0.2148,3.3711 0.1211,6.75 1.0039,10 H 0 v -72 C 0,12.5352 12.5352,-0.00390625 27.9961,-0.00390625 H 152.004 C 167.461,-0.00390625 180,12.5352 180,27.9961 V 101 h -37.004 c 0.832,-3.6055 1.164,-7.3047 1.008,-11.0039"
         style="fill:#0f1012;fill-opacity:1;fill-rule:nonzero;stroke:none"
         id="path14" /></g></g></svg>
